{
  "accessors": [
    {
      "bufferView": 2,
      "componentType": 5126,
      "count": 65532,
      "max": [
        3.7998509407043457,
        4.446187973022461,
        7.597732067108154
      ],
      "min": [
        -3.4881339073181152,
        -14.072216033935547,
        0.09515699744224548
      ],
      "type": "VEC3"
    },
    {
      "bufferView": 2,
      "byteOffset": 786384,
      "componentType": 5126,
      "count": 65532,
      "max": [
        0.9999973773956299,
        0.9999938011169434,
        0.9999998807907104
      ],
      "min": [
        -1.0,
        -0.9999995231628418,
        -0.9999932050704956
      ],
      "type": "VEC3"
    },
    {
      "bufferView": 3,
      "componentType": 5126,
      "count": 65532,
      "max": [
        0.9999991059303284,
        0.9999979734420776,
        0.9999998211860657,
        1.0
      ],
      "min": [
        -0.9999976754188538,
        -0.9999998211860657,
        -0.9999642968177795,
        -1.0
      ],
      "type": "VEC4"
    },
    {
      "bufferView": 1,
      "componentType": 5126,
      "count": 65532,
      "max": [
        0.9990040063858032,
        0.9999629855155945
      ],
      "min": [
        3.999999989900971e-06,
        0.000986000057309866
      ],
      "type": "VEC2"
    },
    {
      "bufferView": 0,
      "componentType": 5125,
      "count": 318042,
      "type": "SCALAR"
    },
    {
      "bufferView": 2,
      "byteOffset": 1572768,
      "componentType": 5126,
      "count": 65532,
      "max": [
        3.814342975616455,
        4.40943717956543,
        7.428030014038086
      ],
      "min": [
        -3.373642921447754,
        -13.084819793701172,
        0.9922299981117249
      ],
      "type": "VEC3"
    },
    {
      "bufferView": 2,
      "byteOffset": 2359152,
      "componentType": 5126,
      "count": 65532,
      "max": [
        0.9999998807907104,
        0.9999948740005493,
        0.9999997615814209
      ],
      "min": [
        -1.0,
        -0.999995231628418,
        -0.9999967813491821
      ],
      "type": "VEC3"
    },
    {
      "bufferView": 3,
      "byteOffset": 1048512,
      "componentType": 5126,
      "count": 65532,
      "max": [
        0.9999999403953552,
        0.9999942183494568,
        0.9999944567680359,
        1.0
      ],
      "min": [
        -0.9999999403953552,
        -0.9999983906745911,
        -0.9999998807907104,
        -1.0
      ],
      "type": "VEC4"
    },
    {
      "bufferView": 1,
      "byteOffset": 524256,
      "componentType": 5126,
      "count": 65532,
      "max": [
        0.998009979724884,
        0.9997590184211731
      ],
      "min": [
        7.000000186963007e-05,
        0.0012379999971017241
      ],
      "type": "VEC2"
    },
    {
      "bufferView": 0,
      "byteOffset": 1272168,
      "componentType": 5125,
      "count": 320649,
      "type": "SCALAR"
    },
    {
      "bufferView": 2,
      "byteOffset": 3145536,
      "componentType": 5126,
      "count": 43607,
      "max": [
        3.814342975616455,
        4.4709930419921875,
        7.699754238128662
      ],
      "min": [
        -3.488600015640259,
        -12.581462860107422,
        0.933912992477417
      ],
      "type": "VEC3"
    },
    {
      "bufferView": 2,
      "byteOffset": 3668820,
      "componentType": 5126,
      "count": 43607,
      "max": [
        1.0,
        0.9999994039535522,
        0.9999986886978149
      ],
      "min": [
        -1.0,
        -0.9999986886978149,
        -0.9999988079071045
      ],
      "type": "VEC3"
    },
    {
      "bufferView": 3,
      "byteOffset": 2097024,
      "componentType": 5126,
      "count": 43607,
      "max": [
        0.9999991059303284,
        0.9999979734420776,
        0.9999958276748657,
        1.0
      ],
      "min": [
        -0.9999976754188538,
        -0.9999998211860657,
        -0.9999918341636658,
        -1.0
      ],
      "type": "VEC4"
    },
    {
      "bufferView": 1,
      "byteOffset": 1048512,
      "componentType": 5126,
      "count": 43607,
      "max": [
        0.9989100098609924,
        0.9998390078544617
      ],
      "min": [
        0.0010010000551119447,
        0.00032900000223889947
      ],
      "type": "VEC2"
    },
    {
      "bufferView": 0,
      "byteOffset": 2554764,
      "componentType": 5125,
      "count": 209511,
      "type": "SCALAR"
    },
    {
      "bufferView": 2,
      "byteOffset": 4192104,
      "componentType": 5126,
      "count": 24,
      "max": [
        3.650501012802124,
        2.8931429386138916,
        0.9286249876022339
      ],
      "min": [
        -3.650501012802124,
        -2.8931429386138916,
        0.07187899947166443
      ],
      "type": "VEC3"
    },
    {
      "bufferView": 2,
      "byteOffset": 4192392,
      "componentType": 5126,
      "count": 24,
      "max": [
        1.0,
        1.0,
        1.0
      ],
      "min": [
        -1.0,
        -1.0,
        -1.0
      ],
      "type": "VEC3"
    },
    {
      "bufferView": 1,
      "byteOffset": 1397368,
      "componentType": 5126,
      "count": 24,
      "max": [
        0.875,
        1.0
      ],
      "min": [
        0.125,
        0.0
      ],
      "type": "VEC2"
    },
    {
      "bufferView": 0,
      "byteOffset": 3392808,
      "componentType": 5125,
      "count": 36,
      "type": "SCALAR"
    }
  ],
  "asset": {
    "extras": {
      "author": "Lassi Kaukonen (https://sketchfab.com/thesidekick)",
      "license": "CC-BY-4.0 (http://creativecommons.org/licenses/by/4.0/)",
      "source": "https://sketchfab.com/3d-models/hyundai-excavator-a805e66f565a412682ac8ce45ab9ac3e",
      "title": "Hyundai Excavator"
    },
    "generator": "Sketchfab-12.68.0",
    "version": "2.0"
  },
  "bufferViews": [
    {
      "buffer": 0,
      "byteLength": 3392952,
      "name": "floatBufferViews",
      "target": 34963
    },
    {
      "buffer": 0,
      "byteLength": 1397560,
      "byteOffset": 3392952,
      "byteStride": 8,
      "name": "floatBufferViews",
      "target": 34962
    },
    {
      "buffer": 0,
      "byteLength": 4192680,
      "byteOffset": 4790512,
      "byteStride": 12,
      "name": "floatBufferViews",
      "target": 34962
    },
    {
      "buffer": 0,
      "byteLength": 2794736,
      "byteOffset": 8983192,
      "byteStride": 16,
      "name": "floatBufferViews",
      "target": 34962
    }
  ],
  "buffers": [
    {
      "byteLength": 11777928,
      "uri": "scene.bin"
    }
  ],
  "images": [
    {
      "uri": "textures/Hyundai_Excavator_baseColor.jpeg"
    },
    {
      "uri": "textures/Hyundai_Excavator_metallicRoughness.png"
    },
    {
      "uri": "textures/Hyundai_Excavator_normal.png"
    }
  ],
  "materials": [
    {
      "doubleSided": true,
      "emissiveFactor": [
        0.5018939394,
        0.5018939394,
        0.5018939394
      ],
      "emissiveTexture": {
        "index": 0
      },
      "name": "Hyundai_Excavator",
      "normalTexture": {
        "index": 2,
        "scale": 0.6441287879
      },
      "occlusionTexture": {
        "index": 1
      },
      "pbrMetallicRoughness": {
        "baseColorTexture": {
          "index": 0
        },
        "metallicRoughnessTexture": {
          "index": 1
        },
        "roughnessFactor": 0.8865530303
      }
    },
    {
      "doubleSided": true,
      "name": "Material.001",
      "pbrMetallicRoughness": {
        "baseColorFactor": [
          0.4530459196144188,
          0.23777559035266901,
          0.06099427481616557,
          1.0
        ],
        "metallicFactor": 0.0,
        "roughnessFactor": 0.8063508326896291
      }
    }
  ],
  "meshes": [
    {
      "name": "Object_0",
      "primitives": [
        {
          "attributes": {
            "NORMAL": 1,
            "POSITION": 0,
            "TANGENT": 2,
            "TEXCOORD_0": 3
          },
          "indices": 4,
          "material": 0,
          "mode": 4
        }
      ]
    },
    {
      "name": "Object_1",
      "primitives": [
        {
          "attributes": {
            "NORMAL": 6,
            "POSITION": 5,
            "TANGENT": 7,
            "TEXCOORD_0": 8
          },
          "indices": 9,
          "material": 0,
          "mode": 4
        }
      ]
    },
    {
      "name": "Object_2",
      "primitives": [
        {
          "attributes": {
            "NORMAL": 11,
            "POSITION": 10,
            "TANGENT": 12,
            "TEXCOORD_0": 13
          },
          "indices": 14,
          "material": 0,
          "mode": 4
        }
      ]
    },
    {
      "name": "Object_3",
      "primitives": [
        {
          "attributes": {
            "NORMAL": 16,
            "POSITION": 15,
            "TEXCOORD_0": 17
          },
          "indices": 18,
          "material": 1,
          "mode": 4
        }
      ]
    }
  ],
  "nodes": [
    {
      "children": [
        1
      ],
      "matrix": [
        1.0,
        0.0,
        0.0,
        0.0,
        0.0,
        2.220446049250313e-16,
        -1.0,
        0.0,
        0.0,
        1.0,
        2.220446049250313e-16,
        0.0,
        0.0,
        0.0,
        0.0,
        1.0
      ],
      "name": "Sketchfab_model"
    },
    {
      "children": [
        2,
        3,
        4,
        5
      ],
      "name": "Hyundai_Excavator_SF.obj.cleaner.materialmerger.gles"
    },
    {
      "mesh": 0,
      "name": "Object_2"
    },
    {
      "mesh": 1,
      "name": "Object_3"
    },
    {
      "mesh": 2,
      "name": "Object_4"
    },
    {
      "mesh": 3,
      "name": "Object_5"
    }
  ],
  "samplers": [
    {
      "magFilter": 9729,
      "minFilter": 9987,
      "wrapS": 10497,
      "wrapT": 10497
    }
  ],
  "scene": 0,
  "scenes": [
    {
      "name": "Sketchfab_Scene",
      "nodes": [
        0
      ]
    }
  ],
  "textures": [
    {
      "sampler": 0,
      "source": 0
    },
    {
      "sampler": 0,
      "source": 1
    },
    {
      "sampler": 0,
      "source": 2
    }
  ]
}
